<svg width="19" height="40" viewBox="0 0 19 40" fill="none" xmlns="http://www.w3.org/2000/svg">
<path d="M7.2002 9.18192C7.71596 9.50375 8.20126 9.87204 8.65015 10.282C9.29783 11.0164 9.65363 11.9628 9.65015 12.9419C9.65015 14.3819 9.65005 15.832 9.55005 17.262C9.37005 19.682 9.16011 22.102 8.86011 24.502C8.37344 28.322 7.83667 32.1353 7.25 35.9419C7.05727 36.9308 6.79003 37.9036 6.4502 38.852C6.34229 39.1134 6.16528 39.3406 5.93824 39.5092C5.71119 39.6778 5.44257 39.7815 5.16114 39.8092C4.8797 39.837 4.59592 39.7876 4.34034 39.6665C4.08475 39.5455 3.86707 39.3573 3.71021 39.122C3.19002 38.2799 2.77661 37.3762 2.47998 36.4319C1.80703 34.204 1.37148 31.9114 1.18018 29.592C0.89018 26.902 0.520043 24.222 0.290043 21.532C-0.0223203 18.877 -0.0825209 16.1984 0.110111 13.532C0.162086 12.6965 0.429994 11.8887 0.887455 11.1877C1.34492 10.4866 1.9764 9.91611 2.72022 9.53202C2.51644 8.06396 2.7934 6.56938 3.51001 5.27201C4.23315 3.91884 5.26001 2.75161 6.51001 1.86197C7.68044 1.01225 9.02516 0.43324 10.4468 0.166903C11.8684 -0.0994338 13.3313 -0.0464802 14.73 0.321933C15.809 0.443352 16.8022 0.968597 17.51 1.79203C17.7655 2.11556 17.9385 2.49633 18.0139 2.90164C18.0893 3.30695 18.0649 3.72454 17.9429 4.11832C17.8208 4.5121 17.6047 4.87031 17.3132 5.1619C17.0218 5.45349 16.6637 5.66976 16.27 5.79203C15.6877 5.91898 15.0955 5.99591 14.5 6.02201C13.94 6.02201 13.3801 6.09199 12.8201 6.13199C12.5701 6.13199 12.3802 6.24192 12.4102 6.56192C12.5002 7.56192 11.7101 8.06195 10.8901 8.21195C9.89014 8.38195 8.89014 8.58192 7.89014 8.81192C7.64754 8.91016 7.41627 9.0342 7.2002 9.18192V9.18192Z" fill="white"/>
</svg>
